<svg width="49" height="49" viewBox="0 0 49 49" fill="none" xmlns="http://www.w3.org/2000/svg">
<path d="M49.0027 10V4C49.0027 1.79086 47.2118 0 45.0027 0H13.1448C10.9357 0 9.1448 1.79086 9.1448 4L9.1448 6C9.1448 8.20914 10.9357 10 13.1448 10L22.1302 10C25.6938 10 27.4785 14.3086 24.9587 16.8284L1.76007 40.027C0.197972 41.5891 0.197971 44.1218 1.76007 45.6839L3.17428 47.0981C4.73638 48.6602 7.26904 48.6602 8.83114 47.0981L32.1743 23.7549C34.6941 21.2351 39.0027 23.0197 39.0027 26.5834V36.5C39.0027 38.7091 40.7936 40.5 43.0027 40.5H45.0027C47.2118 40.5 49.0027 38.7091 49.0027 36.5L49.0027 10Z" fill="black"/>
</svg>
