<svg width="61" height="331" viewBox="0 0 61 331" fill="none" xmlns="http://www.w3.org/2000/svg">
<path fill-rule="evenodd" clip-rule="evenodd" d="M30.333 10C30.333 4.47715 34.8102 0 40.333 0H50.333C55.8559 0 60.333 4.47715 60.333 10V22.5C60.333 26.6421 56.9751 30 52.833 30C48.6909 30 45.333 33.3579 45.333 37.5V147.5C45.333 151.642 41.9751 155 37.833 155C33.6909 155 30.333 158.358 30.333 162.5V167.5C30.333 171.642 33.6909 175 37.833 175C41.9751 175 45.333 178.358 45.333 182.5V293.5C45.333 297.642 48.6909 301 52.833 301C56.9751 301 60.333 304.358 60.333 308.5V321C60.333 326.523 55.8559 331 50.333 331H40.333C34.8102 331 30.333 326.523 30.333 321V313.5C30.333 309.358 26.9751 306 22.833 306C18.6909 306 15.333 302.642 15.333 298.5V187.5C15.333 183.358 11.9751 180 7.83301 180C3.69087 180 0.333008 176.642 0.333008 172.5V157.5C0.333008 153.358 3.69087 150 7.83301 150C11.9751 150 15.333 146.642 15.333 142.5V32.5C15.333 28.3579 18.6909 25 22.833 25C26.9751 25 30.333 21.6421 30.333 17.5V10Z" fill="black"/>
</svg>
