<svg width="26" height="22" viewBox="0 0 26 22" fill="none" xmlns="http://www.w3.org/2000/svg">
<path fill-rule="evenodd" clip-rule="evenodd" d="M14.7286 0C11.9153 0 9.47047 1.54652 8.23039 3.8197C7.94633 3.78707 7.6573 3.77028 7.36429 3.77028C3.29711 3.77028 0 7.00266 0 10.99C0 13.8993 1.75533 16.4068 4.28435 17.5499C5.39239 20.1628 8.021 22 11.0873 22C13.9173 22 16.3744 20.4351 17.6074 18.1398C17.9434 18.1859 18.2868 18.2096 18.6357 18.2096C22.7028 18.2096 26 14.9773 26 10.99C26 7.99046 24.1342 5.41815 21.4784 4.32776C20.3409 1.78007 17.7468 0 14.7286 0ZM18.5418 14.5998C16.5082 14.5998 14.8597 12.9836 14.8597 10.99L14.8579 10.8287C14.8052 8.47571 13.6044 6.40022 11.7828 5.11932C12.4509 4.20535 13.5435 3.60984 14.7779 3.60984C16.8115 3.60984 18.46 5.22603 18.46 7.21969C18.46 7.27379 18.4588 7.32761 18.4564 7.38112C18.4848 7.38046 18.5133 7.38011 18.5418 7.38011C20.5754 7.38011 22.224 8.99634 22.224 10.99C22.224 12.9836 20.5754 14.5998 18.5418 14.5998ZM14.1233 16.8606C12.3017 15.5797 11.1009 13.5043 11.0482 11.1513L11.0464 10.99C11.0464 8.99634 9.39791 7.38011 7.36429 7.38011C5.33068 7.38011 3.68214 8.99634 3.68214 10.99C3.68214 12.9836 5.33068 14.5998 7.36429 14.5998C7.39283 14.5998 7.42131 14.5995 7.44973 14.5988C7.44731 14.6524 7.4461 14.7062 7.4461 14.7603C7.4461 16.7539 9.09462 18.3701 11.1282 18.3701C12.3626 18.3701 13.4552 17.7746 14.1233 16.8606Z" fill="#161616"/>
</svg>
